inDegrees=no
num_controls=7
num_derivatives=13
num_iterations=71
num_multipliers=7
num_parameters=0
num_slacks=7
num_states=26
objective=0.333915
objective_accelerations=0.036527
objective_balance=0.001323
objective_effort=0.027006
objective_height=0.267587
objective_ligament=0.001472
solver_duration=745.458152
status=Solve_Succeeded
success=true
DataType=double
version=3
OpenSimVersion=4.5
endheader
time	/jointset/ground_pelvis/pelvis_tilt/value	/jointset/ground_pelvis/pelvis_tx/value	/jointset/ground_pelvis/pelvis_ty/value	/jointset/hip_r/hip_flexion_r/value	/jointset/hip_r/hip_adduction_r/value	/jointset/hip_r/hip_rotation_r/value	/jointset/back/lumbar_extension/value	/jointset/patellofemoral_r/patellar_flexion_r/value	/jointset/knee_r/knee_flexion_r/value	/jointset/knee_r/knee_adduction_r/value	/jointset/knee_r/knee_rotation_r/value	/jointset/ankle_r/ankle_angle_r/value	/jointset/subtalar_r/subtalar_angle_r/value	/jointset/ground_pelvis/pelvis_tilt/speed	/jointset/ground_pelvis/pelvis_tx/speed	/jointset/ground_pelvis/pelvis_ty/speed	/jointset/hip_r/hip_flexion_r/speed	/jointset/hip_r/hip_adduction_r/speed	/jointset/hip_r/hip_rotation_r/speed	/jointset/back/lumbar_extension/speed	/jointset/patellofemoral_r/patellar_flexion_r/speed	/jointset/knee_r/knee_flexion_r/speed	/jointset/knee_r/knee_adduction_r/speed	/jointset/knee_r/knee_rotation_r/speed	/jointset/ankle_r/ankle_angle_r/speed	/jointset/subtalar_r/subtalar_angle_r/speed	/forceset/tau_hip_flexion_r	/forceset/tau_hip_adduction_r	/forceset/tau_hip_rotation_r	/forceset/tau_knee_flexion_r	/forceset/tau_ankle_angle_r	/forceset/tau_subtalar_angle_r	/forceset/tau_lumbar_extension	lambda_cid13_p0	lambda_cid14_p0	lambda_cid14_p1	lambda_cid14_p2	lambda_cid14_p3	lambda_cid14_p4	lambda_cid14_p5	/jointset/ground_pelvis/pelvis_tilt/accel	/jointset/ground_pelvis/pelvis_tx/accel	/jointset/ground_pelvis/pelvis_ty/accel	/jointset/hip_r/hip_flexion_r/accel	/jointset/hip_r/hip_adduction_r/accel	/jointset/hip_r/hip_rotation_r/accel	/jointset/back/lumbar_extension/accel	/jointset/patellofemoral_r/patellar_flexion_r/accel	/jointset/knee_r/knee_flexion_r/accel	/jointset/knee_r/knee_adduction_r/accel	/jointset/knee_r/knee_rotation_r/accel	/jointset/ankle_r/ankle_angle_r/accel	/jointset/subtalar_r/subtalar_angle_r/accel	gamma_cid13_p0	gamma_cid14_p0	gamma_cid14_p1	gamma_cid14_p2	gamma_cid14_p3	gamma_cid14_p4	gamma_cid14_p5
0.5	-0.16903834840372	0.02975864216851517	0.8060422534828851	0.9151031884968378	-0.2242197956737492	-0.1227704678664091	-0.6484353802522185	0.9489387282680627	0.948938728268056	-0.04417073547553306	0.1745262213849969	0.2940267933470237	0.1363328933958825	-0.4319322986883637	-0.2040356032825997	-0.5023719490575211	1.931775889841677	-0.005927665273555832	0.1705127644450612	-0.7353556650483231	1.917230680640282	1.917230680640286	-0.4707118335146985	0.0001721424848596694	0.5308073199186001	0.1995302478171255	-0.2139699540905962	0.02908901034690411	0.01514617842796739	-0.2654938117958965	-0.01750507169996112	-0.007433004501979522	0.249280329176477	-8.720162583780379	-48.52993802481597	-11.04936957701486	1.411322279292757	-2.801812364834053	-640.4506375983869	47.90722425231128	0.3552491257458079	0.5908292200005331	-0.4265660662991567	-1.309093121042708	-0.2510196667929203	-0.6582931192543293	1.851564719083049	-1.353476080295198	-1.353476080295198	0.4302725320627599	-0.01999968625656427	-0.5638369458145698	-0.3940379444675404	-1.420553706266436e-07	-1.457758850546445e-07	5.681712685581251e-07	-1.542599666811601e-06	3.403339889820696e-08	-2.799112092743154e-07	4.466792615422364e-07
0.51	-0.173338908053028	0.02774804106296258	0.800998390734099	0.9343523361172248	-0.2242923744957168	-0.121097250172367	-0.6556957627457877	0.9680406645741605	0.9680406645741572	-0.04885362057864501	0.1745277564579426	0.2993055866255326	0.1383067216088696	-0.4281071990599175	-0.1980655419899059	-0.5062865172778565	1.917789237387223	-0.0085762281057781	0.1641299974976129	-0.716626433404746	1.902897787238718	1.902897787238721	-0.4658421491350768	0.0001417326669899359	0.5248775203173499	0.1952057343776056	-0.2209840626670684	0.03044660691999287	0.01511233631644462	-0.2698090266147685	-0.01890331911014243	-0.006979799030408327	0.2556528134616258	-7.766555671973583	-49.30204506484945	-11.1758804182859	1.646401659664181	-2.749951143990024	-645.593317112807	47.93350862153954	0.406991291777068	0.6029621941396581	-0.3568451006788411	-1.483130198881097	-0.2701830236505673	-0.6286381935718679	1.897762426116469	-1.511985729834948	-1.511985729835108	0.5188496164700384	0.006180935963172905	-0.6186489876501292	-0.456197308679311	-1.442419325308919e-07	-1.525204883402845e-07	5.090991928481181e-07	-1.599590178410135e-06	4.238112028512325e-08	-2.709425115592114e-07	3.718217757935732e-07
0.52	-0.1775990465239758	0.02579771409238409	0.7959187937229539	0.9534536814348205	-0.2243911206324502	-0.1194879340900144	-0.6627660209150967	0.9869915139942932	0.9869915139942929	-0.05348710219284947	0.1745291359458151	0.3045228624039549	0.1402363968344645	-0.4238480630161485	-0.1919807762877799	-0.5095188015293148	1.902215429283399	-0.01116112822654822	0.1577324421068928	-0.6973308001963109	1.887013303447237	1.88701330344724	-0.4608311357331281	0.0001410254697347226	0.5185038199013037	0.1906996503386812	-0.2279981712435349	0.03180420349308363	0.01507849420492122	-0.27412424143364	-0.02030156652032351	-0.006526593558833301	0.2620252977467794	-6.870873372085881	-50.07101604229815	-11.29712038477102	1.875246824190444	-2.733156281604704	-650.6982956809265	48.01952999318741	0.4420564088103435	0.6137701018869651	-0.2901092725237682	-1.626524250916572	-0.2382871245024827	-0.661250807908655	1.964845032054653	-1.663794158278398	-1.663794158278399	0.4585383365281729	-0.01405916213368923	-0.6526171087738034	-0.4303520643484368	-1.402723257514291e-07	-1.622099766906468e-07	3.291985763831598e-07	-1.691842810230104e-06	6.502674037884974e-08	-2.585619425555279e-07	2.165225950082162e-07
0.53	-0.1818145853323509	0.02390863757948527	0.7908103270975102	0.9723916617381596	-0.2245153144544562	-0.1179420851308564	-0.6696408655373182	1.005775779832185	1.005775779832193	-0.05806939445685231	0.1745303077661132	0.3096740118392883	0.1421201097996038	-0.4192008985692501	-0.1858318976753048	-0.5120554685665115	1.885139370511963	-0.01365994677992776	0.1514391437000058	-0.677582874814445	1.86957221906329	1.869572219063291	-0.4556030819252459	9.791098618073426e-05	0.5116331717700806	0.1860124278204987	-0.2347258240401922	0.03315104645547628	0.01510153540136324	-0.2785822135614434	-0.02192123279739065	-0.00621904166993594	0.2680517512792507	-6.033911449856859	-50.93663204855901	-11.50712931514679	2.128056293886544	-2.444611231727505	-655.8528659222214	47.9877115471785	0.4848490127935884	0.6158564177102053	-0.2176375821847693	-1.784358914861859	-0.2532627400707083	-0.6133471870201845	1.988053706287415	-1.824384701117649	-1.824384701117885	0.5586113860096917	0.0009134772229675794	-0.7182374601228435	-0.4926540660113813	-1.436853468774096e-07	-1.743283884375654e-07	2.095558666997587e-07	-1.819394278798822e-06	8.112828448781606e-08	-2.482445916006072e-07	9.504720374894612e-08
